<svg xmlns="http://www.w3.org/2000/svg" xmlns:xlink="http://www.w3.org/1999/xlink" version="1.1" x="0px" y="0px" viewBox="0 0 100 125" enable-background="new 0 0 100 100" xml:space="preserve"><g><path fill-rule="evenodd" clip-rule="evenodd" d="M49.999,87.716c-7.956,0-14.868-3.425-18.337-8.43   c-0.251-0.141-0.51-0.27-0.757-0.417c0.719,4.144,4.184,8.781,7.734,10.176c-0.126-0.732-0.241-1.817-0.35-3.055   c1.133,2.266,3.085,4.859,6.339,7.005c-0.394-1.653-0.461-3.41-0.307-5.037c1.821,2.815,3.268,5.98,2.918,7.041   c2.653-0.995,5.27-4.396,6.44-7.235c0.379,2.166,0.396,4.081,0.062,5.23c0.978-0.274,3.794-2.819,5.749-5.698   c-0.174,1.099-0.351,2.01-0.507,2.553c1.672-0.791,7.152-5.265,8.119-9.001C63.368,84.991,57.097,87.716,49.999,87.716z"/></g><g><path d="M88.892,43.938c-0.033-0.447-0.022-0.951-0.1-1.497c-0.082-0.546-0.171-1.141-0.268-1.785   c-0.107-0.642-0.18-1.34-0.338-2.069c-0.184-0.724-0.38-1.493-0.587-2.305c-0.907-3.212-2.327-7.096-4.935-10.99   c-2.556-3.898-6.165-7.888-10.962-11.083c-4.823-3.173-10.664-5.514-17.357-6.295c-0.833-0.125-1.594-0.101-2.403-0.159   L50.74,7.696l-0.604-0.029c0.047,0.001-0.148-0.007-0.157-0.004L49.9,7.666l-0.158,0.007l-0.316,0.015   c-1.684,0.1-3.4,0.089-5.103,0.42c-3.438,0.411-6.839,1.501-10.143,2.89c-3.308,1.424-6.389,3.441-9.272,5.752   c-2.839,2.38-5.315,5.226-7.45,8.336c-2.078,3.157-3.666,6.644-4.825,10.281c-1.09,3.614-1.591,7.682-1.658,11.238l0.18,2.946   c0.024,0.957,0.197,1.899,0.358,2.841l0.236,1.412c0.066,0.473,0.163,0.939,0.303,1.396l0.749,2.755   c1.209,3.604,2.84,7.042,4.946,10.14c2.163,3.051,4.657,5.823,7.488,8.137c2.528,1.972,5.209,3.686,8.039,5.002   c-1.741-1.81-2.997-3.904-3.591-6.181c-0.042-0.044-0.088-0.085-0.13-0.128c-0.573-0.607-1.178-1.166-1.714-1.796   c-2.185-2.495-3.87-5.366-5.203-8.285l-0.861-2.251c-0.315-0.725-0.445-1.539-0.676-2.287c-0.101-0.382-0.209-0.758-0.325-1.128   c-0.101-0.377-0.152-0.772-0.231-1.154c-0.133-0.772-0.32-1.518-0.415-2.284c-0.11-1.556-0.327-3.048-0.305-4.569   c-0.021-0.753-0.061-1.498,0.04-2.253l0.091-1.12l0.042-0.556l0.02-0.277l0.01-0.138l0.005-0.069   c-0.003,0.145,0.013-0.423-0.005,0.308l0.399-2.738l0.1-0.684l0.05-0.342c0.019-0.105,0.05-0.162,0.075-0.245l0.298-0.912   l0.271-0.9l0.126-0.447l0.201-0.502l0.778-1.995c1.211-2.578,2.665-4.96,4.425-7.035c1.812-2.038,3.827-3.775,5.928-5.256   c2.187-1.361,4.341-2.631,6.65-3.417c2.272-0.837,4.564-1.445,6.865-1.698c1.134-0.235,2.296-0.168,3.424-0.246l0.212-0.011   l0.083-0.005l0.175,0.007l1.202,0.049l1.195,0.048c0.385,0.018,0.862,0.022,0.994,0.079c0.423,0.087,0.842,0.157,1.263,0.209   c0.22,0.036,0.4,0.027,0.655,0.089c0.259,0.071,0.52,0.132,0.782,0.187c0.525,0.106,1.047,0.212,1.564,0.317   c0.503,0.161,1.002,0.32,1.496,0.479c1.015,0.26,1.928,0.733,2.89,1.072c0.49,0.154,0.921,0.415,1.367,0.641   c0.449,0.226,0.894,0.449,1.334,0.67c0.826,0.53,1.685,1,2.487,1.524c0.743,0.592,1.546,1.104,2.245,1.703   c0.67,0.623,1.431,1.155,2.029,1.801c0.586,0.653,1.248,1.237,1.768,1.894c2.223,2.553,3.594,5.258,4.57,7.553   c0.232,0.586,0.45,1.14,0.656,1.661c0.187,0.53,0.292,1.046,0.434,1.519c0.135,0.478,0.261,0.92,0.375,1.325   c0.115,0.408,0.14,0.79,0.207,1.128c0.237,1.369,0.364,2.099,0.364,2.099l0.01-0.377c0,0,0.051,0.922,0.147,2.651   c0.012,0.216,0.025,0.445,0.038,0.686c0.01,0.229,0.039,0.533,0.021,0.688c-0.01,0.381-0.02,0.798-0.032,1.248   c-0.018,0.462,0.02,0.935-0.027,1.502c-0.085,0.582-0.121,1.218-0.185,1.892c-0.029,0.339-0.06,0.688-0.091,1.045   c-0.069,0.35-0.139,0.708-0.211,1.076c-0.162,0.731-0.248,1.54-0.486,2.334c-0.236,0.794-0.454,1.645-0.697,2.538   c-0.305,0.859-0.664,1.741-1.015,2.683c-1.442,3.384-3.706,7.101-7.123,10.415c-0.595,2.273-1.85,4.362-3.589,6.169   c1.641-0.765,3.207-1.612,4.664-2.539c4.768-3.088,8.396-6.977,10.99-10.801c2.644-3.821,4.116-7.659,5.067-10.845   c0.218-0.807,0.425-1.57,0.62-2.288c0.17-0.729,0.256-1.444,0.373-2.094c0.106-0.654,0.205-1.26,0.295-1.815   c0.086-0.554,0.079-1.015,0.119-1.45c0.111-1.718,0.17-2.635,0.17-2.635l0.002-0.081C89.024,46.687,88.978,45.73,88.892,43.938z"/></g><g><path d="M49.999,87.716c-11.423,0-20.715-7.052-20.715-15.719c0-4.321,2.306-9.63,6.02-13.857   c4.218-4.801,9.437-7.445,14.695-7.445s10.477,2.644,14.695,7.445c3.714,4.227,6.02,9.536,6.02,13.857   C70.714,80.664,61.422,87.716,49.999,87.716z M49.999,52.834c-10.254,0-18.577,11.596-18.577,19.163   c0,7.488,8.333,13.581,18.577,13.581s18.577-6.092,18.577-13.581C68.576,64.43,60.253,52.834,49.999,52.834z"/></g><circle fill-rule="evenodd" clip-rule="evenodd" cx="39.493" cy="43.479" r="2.829"/><path fill-rule="evenodd" clip-rule="evenodd" d="M60.505,40.65c-1.561,0-2.829,1.266-2.829,2.829c0,1.562,1.268,2.829,2.829,2.829  c1.562,0,2.83-1.266,2.83-2.829C63.335,41.916,62.067,40.65,60.505,40.65z"/><path fill-rule="evenodd" clip-rule="evenodd" d="M31.153,20.781c1.149,6.092-2.439,10.888-3.874,13.61  c2.763,0,15.329-7.421,15.041-13.512C42.032,14.787,31.153,20.781,31.153,20.781z"/><path fill-rule="evenodd" clip-rule="evenodd" d="M44.3,6.918c-3.99,1.459-7.635-0.137-9.636-0.675  c0.632,0.971,6.404,6.252,10.489,5.32C49.24,10.631,44.3,6.918,44.3,6.918z"/><path fill-rule="evenodd" clip-rule="evenodd" d="M40.847,17.806c1.806,4.195,2.301,7.908,1.477,10.097  c1.352-0.743,8.81-7.303,7.724-11.636C48.965,11.932,40.847,17.806,40.847,17.806z"/><path fill-rule="evenodd" clip-rule="evenodd" d="M51.144,7.901C46.261,7.466,42.343,6.368,40.441,5  c0.254,1.157,4.126,8.484,8.886,9.437C54.085,15.391,51.144,7.901,51.144,7.901z"/><path fill-rule="evenodd" clip-rule="evenodd" d="M48.26,19.017c0.901,1.968,3.354,6.009,9.094,8.067  c-2.623-3.554-2.819-8.585-1.634-10.82C56.904,14.03,48.26,19.017,48.26,19.017z"/><path fill-rule="evenodd" clip-rule="evenodd" d="M56.355,20.167c1.254,2.078,4.579,8.091,4.994,10.392  c1.108-1.707,3.462-8.091,1.385-11.283C60.655,16.085,56.355,20.167,56.355,20.167z"/><path fill-rule="evenodd" clip-rule="evenodd" d="M63.698,22.417c0.59,2.434,3.679,8.499,7.359,10.459  c-0.334-1.604-1.478-9.645-0.142-11.115C72.251,20.291,63.698,22.417,63.698,22.417z"/><g><path d="M46.631,57.991l1.632,3.316c0.297,0.604,0.049,1.334-0.555,1.631c-0.524,0.258-1.144,0.104-1.493-0.336l-2.296-2.896   c-0.553-0.698-0.436-1.713,0.262-2.266c0.698-0.553,1.713-0.436,2.266,0.262C46.519,57.791,46.582,57.893,46.631,57.991z"/><path d="M56.078,59.705l-2.296,2.896c-0.418,0.527-1.184,0.616-1.711,0.198c-0.458-0.363-0.584-0.989-0.336-1.492l1.632-3.316   c0.393-0.799,1.36-1.128,2.159-0.735c0.799,0.393,1.128,1.36,0.735,2.159C56.211,59.518,56.146,59.619,56.078,59.705z"/></g><ellipse fill-rule="evenodd" clip-rule="evenodd" cx="49.999" cy="76" rx="13.093" ry="2.673"/><g><path d="M66.753,38.577c0,0-0.122-0.056-0.351-0.16c-0.212-0.085-0.601-0.3-0.955-0.408c-0.18-0.061-0.378-0.129-0.595-0.203   c-0.23-0.054-0.48-0.111-0.745-0.173c-0.534-0.083-1.134-0.149-1.817-0.041c-1.354,0.135-3.137,0.906-5.188,1.386   c-1.019,0.259-2.1,0.421-3.192,0.537c-1.087,0.115-2.219,0.135-3.294,0.134c-1.13-0.004-2.132-0.019-3.291-0.14   c-1.103-0.125-2.177-0.288-3.198-0.555c-2.049-0.494-3.827-1.285-5.179-1.431c-0.682-0.114-1.28-0.053-1.813,0.028   c-0.267,0.061-0.516,0.118-0.746,0.171c-0.232,0.078-0.444,0.15-0.636,0.215c-0.384,0.12-0.683,0.304-0.885,0.385   c-0.203,0.094-0.311,0.145-0.311,0.145l-0.088,0.041c-0.808,0.376-1.767,0.026-2.143-0.782c-0.376-0.808-0.026-1.767,0.782-2.143   c0.083-0.039,0.176-0.072,0.261-0.095c0,0,0.144-0.039,0.413-0.111c0.275-0.066,0.65-0.19,1.175-0.294   c0.261-0.05,0.55-0.105,0.865-0.165c0.324-0.04,0.682-0.064,1.058-0.095c0.762-0.016,1.648,0.033,2.537,0.257   c0.897,0.204,1.773,0.554,2.625,0.891c0.86,0.337,1.72,0.699,2.637,0.951c0.909,0.271,1.876,0.487,2.863,0.599   c0.932,0.118,2.069,0.16,3.075,0.17c1.062-0.014,2.069-0.047,3.073-0.166c0.998-0.112,1.959-0.322,2.874-0.587   c0.919-0.246,1.783-0.603,2.646-0.932c0.856-0.329,1.736-0.672,2.634-0.867c0.891-0.214,1.775-0.258,2.535-0.236   c0.376,0.033,0.729,0.058,1.057,0.101c0.329,0.065,0.632,0.126,0.905,0.18c0.553,0.119,0.838,0.211,1.104,0.274   c0.243,0.063,0.373,0.097,0.373,0.097l0.007,0.002c0.861,0.223,1.378,1.101,1.156,1.962c-0.223,0.861-1.101,1.378-1.962,1.156   C66.929,38.647,66.835,38.613,66.753,38.577z"/></g><text x="0" y="115" fill="#000000" font-size="5px" font-weight="bold" font-family="'Helvetica Neue', Helvetica, Arial-Unicode, Arial, Sans-serif">Created by Gabriele Malaspina</text><text x="0" y="120" fill="#000000" font-size="5px" font-weight="bold" font-family="'Helvetica Neue', Helvetica, Arial-Unicode, Arial, Sans-serif">from the Noun Project</text></svg>